<svg width="22" height="23" viewBox="0 0 22 23" fill="none" xmlns="http://www.w3.org/2000/svg">
<path fill-rule="evenodd" clip-rule="evenodd" d="M8.12026 4.77687C8.27995 3.43805 9.41931 2.40002 10.8011 2.40002C12.1829 2.40002 13.3223 3.43805 13.482 4.77687C15.7344 5.79794 17.3011 8.06602 17.3011 10.7V15.2159L18.8046 18.1945C19.1067 18.7931 18.6717 19.5 18.0011 19.5H13.3475C12.9768 20.5487 11.9767 21.3 10.8011 21.3C9.62553 21.3 8.62541 20.5487 8.25476 19.5H3.60112C2.93059 19.5 2.49552 18.7931 2.79768 18.1945L4.30112 15.2159V10.7C4.30112 8.06602 5.86786 5.79794 8.12026 4.77687ZM15.5977 15.8357L16.5387 17.7H5.06356L6.00457 15.8357C6.06805 15.71 6.10112 15.5711 6.10112 15.4302V10.7C6.10112 8.10429 8.20539 6.00002 10.8011 6.00002C13.3969 6.00002 15.5011 8.10429 15.5011 10.7V15.4302C15.5011 15.5711 15.5342 15.71 15.5977 15.8357Z" fill="#92929D"/>
</svg>
