<svg width="338" height="50" viewBox="0 0 338 50" fill="none" xmlns="http://www.w3.org/2000/svg">
<rect width="338" height="50" rx="12" fill="#FC5A5A"/>
<mask id="mask0_1_1129" style="mask-type:luminance" maskUnits="userSpaceOnUse" x="71" y="17" width="16" height="16">
<path fill-rule="evenodd" clip-rule="evenodd" d="M86.3882 23.6092H78.9657V26.6169H83.2382C82.8399 28.5277 81.1743 29.6246 78.9657 29.6246C76.3587 29.6246 74.2587 27.5723 74.2587 25.0246C74.2587 22.4769 76.3587 20.4246 78.9657 20.4246C80.0881 20.4246 81.1019 20.8138 81.8985 21.4508L84.2158 19.1862C82.8037 17.9831 80.9933 17.24 78.9657 17.24C74.5483 17.24 71 20.7077 71 25.0246C71 29.3416 74.5483 32.8093 78.9657 32.8093C82.9485 32.8093 86.5693 29.9785 86.5693 25.0246C86.5693 24.5646 86.4969 24.0692 86.3882 23.6092Z" fill="white"/>
</mask>
<g mask="url(#mask0_1_1129)">
<path d="M70.2759 29.6247V20.4246L76.4312 25.0246L70.2759 29.6247Z" fill="white"/>
</g>
<mask id="mask1_1_1129" style="mask-type:luminance" maskUnits="userSpaceOnUse" x="71" y="17" width="16" height="16">
<path fill-rule="evenodd" clip-rule="evenodd" d="M86.3882 23.6092H78.9657V26.6169H83.2382C82.8399 28.5277 81.1743 29.6246 78.9657 29.6246C76.3587 29.6246 74.2587 27.5723 74.2587 25.0246C74.2587 22.4769 76.3587 20.4246 78.9657 20.4246C80.0881 20.4246 81.1019 20.8138 81.8985 21.4508L84.2158 19.1862C82.8037 17.9831 80.9933 17.24 78.9657 17.24C74.5483 17.24 71 20.7077 71 25.0246C71 29.3416 74.5483 32.8093 78.9657 32.8093C82.9485 32.8093 86.5693 29.9785 86.5693 25.0246C86.5693 24.5646 86.4969 24.0692 86.3882 23.6092Z" fill="white"/>
</mask>
<g mask="url(#mask1_1_1129)">
<path d="M70.2759 20.4246L76.4312 25.0246L78.9657 22.8662L87.6555 21.4861V16.5323H70.2759V20.4246Z" fill="white"/>
</g>
<mask id="mask2_1_1129" style="mask-type:luminance" maskUnits="userSpaceOnUse" x="71" y="17" width="16" height="16">
<path fill-rule="evenodd" clip-rule="evenodd" d="M86.3882 23.6092H78.9657V26.6169H83.2382C82.8399 28.5277 81.1743 29.6246 78.9657 29.6246C76.3587 29.6246 74.2587 27.5723 74.2587 25.0246C74.2587 22.4769 76.3587 20.4246 78.9657 20.4246C80.0881 20.4246 81.1019 20.8138 81.8985 21.4508L84.2158 19.1862C82.8037 17.9831 80.9933 17.24 78.9657 17.24C74.5483 17.24 71 20.7077 71 25.0246C71 29.3416 74.5483 32.8093 78.9657 32.8093C82.9485 32.8093 86.5693 29.9785 86.5693 25.0246C86.5693 24.5646 86.4969 24.0692 86.3882 23.6092Z" fill="white"/>
</mask>
<g mask="url(#mask2_1_1129)">
<path d="M70.2759 29.6246L81.1382 21.4861L83.9986 21.84L87.6555 16.5323V33.517H70.2759V29.6246Z" fill="white"/>
</g>
<mask id="mask3_1_1129" style="mask-type:luminance" maskUnits="userSpaceOnUse" x="71" y="17" width="16" height="16">
<path fill-rule="evenodd" clip-rule="evenodd" d="M86.3882 23.6092H78.9657V26.6169H83.2382C82.8399 28.5277 81.1743 29.6246 78.9657 29.6246C76.3587 29.6246 74.2587 27.5723 74.2587 25.0246C74.2587 22.4769 76.3587 20.4246 78.9657 20.4246C80.0881 20.4246 81.1019 20.8138 81.8985 21.4508L84.2158 19.1862C82.8037 17.9831 80.9933 17.24 78.9657 17.24C74.5483 17.24 71 20.7077 71 25.0246C71 29.3416 74.5483 32.8093 78.9657 32.8093C82.9485 32.8093 86.5693 29.9785 86.5693 25.0246C86.5693 24.5646 86.4969 24.0692 86.3882 23.6092Z" fill="white"/>
</mask>
<g mask="url(#mask3_1_1129)">
<path d="M87.6556 33.517L76.4312 25.0246L74.9829 23.9631L87.6556 20.4246V33.517Z" fill="white"/>
</g>
<path d="M102.208 23.806C102.208 26.9076 104.478 29.089 107.461 29.089C109.761 29.089 111.631 27.8722 112.329 25.7352H109.939C109.45 26.7443 108.559 27.234 107.446 27.234C105.636 27.234 104.345 25.8984 104.345 23.806C104.345 21.6987 105.636 20.378 107.446 20.378C108.559 20.378 109.45 20.8677 109.939 21.862H112.329C111.631 19.7398 109.761 18.5081 107.461 18.5081C104.478 18.5081 102.208 20.7044 102.208 23.806ZM122.043 24.8893C122.043 22.2923 120.188 20.6451 117.813 20.6451C115.439 20.6451 113.584 22.2923 113.584 24.8893C113.584 27.4715 115.379 29.1336 117.754 29.1336C120.143 29.1336 122.043 27.4715 122.043 24.8893ZM115.691 24.8893C115.691 23.2421 116.685 22.4556 117.783 22.4556C118.882 22.4556 119.906 23.2421 119.906 24.8893C119.906 26.5217 118.852 27.3231 117.754 27.3231C116.641 27.3231 115.691 26.5217 115.691 24.8893ZM129.324 29H131.402V24.177C131.402 21.9065 130.037 20.6599 128.122 20.6599C127.069 20.6599 126.178 21.1051 125.644 21.8026V20.7786H123.567V29H125.644V24.459C125.644 23.1382 126.371 22.4259 127.499 22.4259C128.597 22.4259 129.324 23.1382 129.324 24.459V29ZM133.704 26.4475C133.704 28.3322 134.758 29 136.331 29H137.637V27.2489H136.672C136.019 27.2489 135.797 27.0114 135.797 26.4624V22.4852H137.637V20.7786H135.797V18.7456H133.704V20.7786H132.725V22.4852H133.704V26.4475ZM139.131 29H141.209V20.7786H139.131V29ZM140.185 19.7992C140.912 19.7992 141.461 19.265 141.461 18.5823C141.461 17.8997 140.912 17.3654 140.185 17.3654C139.443 17.3654 138.909 17.8997 138.909 18.5823C138.909 19.265 139.443 19.7992 140.185 19.7992ZM149.019 29H151.097V24.177C151.097 21.9065 149.732 20.6599 147.817 20.6599C146.764 20.6599 145.873 21.1051 145.339 21.8026V20.7786H143.261V29H145.339V24.459C145.339 23.1382 146.066 22.4259 147.194 22.4259C148.292 22.4259 149.019 23.1382 149.019 24.459V29ZM160.834 20.7786H158.742V25.3048C158.742 26.6256 158.029 27.3379 156.901 27.3379C155.803 27.3379 155.076 26.6256 155.076 25.3048V20.7786H152.998V25.6016C152.998 27.8573 154.379 29.1039 156.293 29.1039C157.317 29.1039 158.222 28.6587 158.742 27.9612V29H160.834V20.7786ZM166.416 22.3517C167.484 22.3517 168.345 23.0343 168.375 24.1176H164.472C164.635 22.9898 165.421 22.3517 166.416 22.3517ZM170.319 26.4178H168.078C167.811 26.9669 167.321 27.4121 166.431 27.4121C165.392 27.4121 164.561 26.7295 164.457 25.5126H170.467C170.512 25.2455 170.526 24.9784 170.526 24.7112C170.526 22.2626 168.85 20.6451 166.475 20.6451C164.041 20.6451 162.35 22.2923 162.35 24.8893C162.35 27.4715 164.086 29.1336 166.475 29.1336C168.508 29.1336 169.873 27.9315 170.319 26.4178ZM177.078 29H179.334L180.832 23.2569L182.331 29H184.572L186.976 20.7786H184.988L183.533 27.0263L181.99 20.7786H179.794L178.221 27.0411L176.766 20.7786H174.659L177.078 29ZM188.1 29H190.178V20.7786H188.1V29ZM189.154 19.7992C189.881 19.7992 190.43 19.265 190.43 18.5823C190.43 17.8997 189.881 17.3654 189.154 17.3654C188.412 17.3654 187.878 17.8997 187.878 18.5823C187.878 19.265 188.412 19.7992 189.154 19.7992ZM192.557 26.4475C192.557 28.3322 193.611 29 195.184 29H196.49V27.2489H195.525C194.872 27.2489 194.649 27.0114 194.649 26.4624V22.4852H196.49V20.7786H194.649V18.7456H192.557V20.7786H191.578V22.4852H192.557V26.4475ZM197.984 29H200.062V24.459C200.062 23.1382 200.789 22.4259 201.917 22.4259C203.015 22.4259 203.742 23.1382 203.742 24.459V29H205.819V24.177C205.819 21.9065 204.469 20.6599 202.614 20.6599C201.516 20.6599 200.596 21.1051 200.062 21.8026V18.0184H197.984V29ZM216.11 18.5081C213.112 18.5081 210.827 20.7044 210.827 23.806C210.827 26.9076 213.112 29.089 216.125 29.089C218.885 29.089 220.769 27.1598 221.185 25.0526V23.2421H215.575V24.83H219.137C218.825 26.2991 217.801 27.2192 216.199 27.2192C214.27 27.2192 212.964 25.9133 212.964 23.806C212.964 21.7432 214.255 20.4225 216.11 20.4225C217.208 20.4225 218.069 20.8825 218.543 21.7581H220.933C220.265 19.6805 218.425 18.5081 216.11 18.5081ZM230.661 24.8893C230.661 22.2923 228.806 20.6451 226.432 20.6451C224.058 20.6451 222.203 22.2923 222.203 24.8893C222.203 27.4715 223.998 29.1336 226.373 29.1336C228.762 29.1336 230.661 27.4715 230.661 24.8893ZM224.31 24.8893C224.31 23.2421 225.304 22.4556 226.402 22.4556C227.501 22.4556 228.525 23.2421 228.525 24.8893C228.525 26.5217 227.471 27.3231 226.373 27.3231C225.26 27.3231 224.31 26.5217 224.31 24.8893ZM240.125 24.8893C240.125 22.2923 238.27 20.6451 235.895 20.6451C233.521 20.6451 231.666 22.2923 231.666 24.8893C231.666 27.4715 233.462 29.1336 235.836 29.1336C238.225 29.1336 240.125 27.4715 240.125 24.8893ZM233.773 24.8893C233.773 23.2421 234.768 22.4556 235.866 22.4556C236.964 22.4556 237.988 23.2421 237.988 24.8893C237.988 26.5217 236.934 27.3231 235.836 27.3231C234.723 27.3231 233.773 26.5217 233.773 24.8893ZM241.115 24.8596C241.115 27.427 242.777 29.1336 244.869 29.1336C246.16 29.1336 247.095 28.4954 247.585 27.7831V29.0594C247.585 30.5879 246.694 31.2408 245.552 31.2408C244.513 31.2408 243.741 30.7511 243.534 30.0091H241.471C241.679 31.8938 243.296 33.0513 245.611 33.0513C248.312 33.0513 249.677 31.2854 249.677 29.0594V20.7786H247.585V21.951C247.095 21.2387 246.16 20.6451 244.869 20.6451C242.777 20.6451 241.115 22.2923 241.115 24.8596ZM247.585 24.8893C247.585 26.4475 246.546 27.3082 245.403 27.3082C244.29 27.3082 243.237 26.4178 243.237 24.8596C243.237 23.3014 244.29 22.4704 245.403 22.4704C246.546 22.4704 247.585 23.3311 247.585 24.8893ZM251.706 29H253.784V18.0184H251.706V29ZM259.369 22.3517C260.437 22.3517 261.298 23.0343 261.328 24.1176H257.425C257.588 22.9898 258.374 22.3517 259.369 22.3517ZM263.272 26.4178H261.031C260.764 26.9669 260.274 27.4121 259.383 27.4121C258.345 27.4121 257.514 26.7295 257.41 25.5126H263.42C263.464 25.2455 263.479 24.9784 263.479 24.7112C263.479 22.2626 261.802 20.6451 259.428 20.6451C256.994 20.6451 255.302 22.2923 255.302 24.8893C255.302 27.4715 257.039 29.1336 259.428 29.1336C261.461 29.1336 262.826 27.9315 263.272 26.4178Z" fill="white"/>
</svg>
